# xmcd
#
# Track frame offsets: 
#        150
#        15092
#        34005
#        51592
#        67008
#        86129
#        99609
#        128211
#        151200
#        162987
#
# Disc length: 2500 seconds
#
# Revision: 0
# Processed by: cddbd v1.5.2PL0 Copyright (c) Steve Scherf et al.
# Submitted via: ExactAudioCopy v1.3
#
DISCID=7d09c20a
DTITLE=David Gogo - Vicksburg Call
DYEAR=2015
DGENRE=Chicago Blues
TTITLE0=Cuts Me To The Bone
TTITLE1=Fooling Myself
TTITLE2=The Loner
TTITLE3=There's A Hole
TTITLE4=Jet Set (Sigh)
TTITLE5=What's Not To Like
TTITLE6=Our Last Goodbye
TTITLE7=Vicksburg Call
TTITLE8=Coulda Shoulda Woulda
TTITLE9=Why 
EXTD=
EXTT0=
EXTT1=
EXTT2=
EXTT3=
EXTT4=
EXTT5=
EXTT6=
EXTT7=
EXTT8=
EXTT9=
PLAYORDER=
